<svg width="128" height="80" viewBox="0 0 128 80" fill="none" xmlns="http://www.w3.org/2000/svg">
<g filter="url(#filter0_d_6202_3255)">
<rect width="120" height="72" transform="translate(4)" fill="#1C1C28"/>
<path d="M8 64.1445C8.31117 66.2338 10.3115 68.1008 13.3121 68.1008C17.4239 68.1008 19.0465 65.3669 19.0465 62.3664V52.6091H16.2015V53.8982C15.8237 53.1647 14.8235 52.409 13.0898 52.409C10.0893 52.409 8 54.8539 8 57.7433C8 60.8106 10.1782 63.0554 13.0898 63.0554C14.6679 63.0554 15.6903 62.3664 16.1348 61.6552V62.4553C16.1348 64.5668 15.0902 65.5003 13.2232 65.5003C11.8229 65.5003 10.8672 64.6335 10.6672 63.4333L8 64.1445ZM13.601 60.5216C12.0674 60.5216 10.9783 59.4548 10.9783 57.7433C10.9783 56.0541 12.1341 54.9873 13.601 54.9873C15.0235 54.9873 16.1793 56.0541 16.1793 57.7433C16.1793 59.4325 15.1124 60.5216 13.601 60.5216Z" fill="#6966FF"/>
<path d="M25.0146 52.6091H22.0585V63.5444H25.0146V54.6094C25.0813 55.6318 25.9258 56.4098 26.9927 56.4098C28.104 56.4098 28.9708 55.5429 28.9708 54.4316C28.9708 53.3203 28.104 52.4535 26.9927 52.4535C25.9258 52.4535 25.0813 53.2536 25.0146 54.2983V52.6091Z" fill="#6966FF"/>
<path d="M30.0961 60.5661C30.0961 62.2775 31.5185 63.8556 33.8523 63.8556C35.4748 63.8556 36.5195 63.0999 37.0751 62.233C37.0751 62.6553 37.1196 63.2554 37.1862 63.5444H39.8979C39.8312 63.1665 39.7645 62.3886 39.7645 61.8107V56.432C39.7645 54.2316 38.4754 52.2757 35.0081 52.2757C32.0742 52.2757 30.4961 54.1649 30.3183 55.8763L32.941 56.432C33.0299 55.4763 33.7412 54.6539 35.0303 54.6539C36.275 54.6539 36.8751 55.2984 36.8751 56.0764C36.8751 56.4542 36.675 56.7654 36.0527 56.8543L33.3633 57.2544C31.5408 57.5211 30.0961 58.6102 30.0961 60.5661ZM34.4746 61.6552C33.5189 61.6552 33.0522 61.0328 33.0522 60.3883C33.0522 59.5437 33.6523 59.1214 34.408 59.0102L36.8751 58.6324V59.1214C36.8751 61.055 35.7193 61.6552 34.4746 61.6552Z" fill="#6966FF"/>
<path d="M45.6564 57.2544C45.6564 55.9875 46.4121 54.9873 47.7012 54.9873C49.1237 54.9873 49.7238 55.943 49.7238 57.1654V63.5444H52.6799V56.6542C52.6799 54.2538 51.4352 52.3201 48.7236 52.3201C47.5456 52.3201 46.2342 52.8313 45.5675 53.9649V52.6091H42.7003V63.5444H45.6564V57.2544Z" fill="#6966FF"/>
<path d="M59.4384 49.3418H56.7712V50.8754C56.7712 51.8534 56.2378 52.6091 55.0821 52.6091H54.5264V55.2318H56.5045V60.3216C56.5045 62.4331 57.8381 63.7 59.9718 63.7C60.8387 63.7 61.3721 63.5444 61.6388 63.4333V60.9884C61.4832 61.0328 61.0831 61.0773 60.7275 61.0773C59.8829 61.0773 59.4384 60.7661 59.4384 59.8104V55.2318H61.6388V52.6091H59.4384V49.3418Z" fill="#6966FF"/>
<path d="M63.2815 60.4994C63.4148 61.7441 64.5484 63.8778 67.8379 63.8778C70.705 63.8778 72.0831 62.0552 72.0831 60.2771C72.0831 58.6768 70.994 57.3655 68.838 56.921L67.2822 56.5876C66.6821 56.4764 66.282 56.143 66.282 55.6096C66.282 54.9873 66.9044 54.5205 67.6823 54.5205C68.9269 54.5205 69.3937 55.3429 69.4826 55.9875L71.9497 55.4318C71.8164 54.2538 70.7717 52.2757 67.66 52.2757C65.3041 52.2757 63.5704 53.8982 63.5704 55.8541C63.5704 57.3877 64.5261 58.6546 66.6376 59.1214L68.0823 59.4548C68.9269 59.6326 69.2603 60.0326 69.2603 60.5216C69.2603 61.0995 68.7936 61.6107 67.8156 61.6107C66.5265 61.6107 65.8819 60.8106 65.8153 59.9437L63.2815 60.4994Z" fill="#6966FF"/>
<path fill-rule="evenodd" clip-rule="evenodd" d="M94.221 37.2363C94.425 37.2363 94.5904 37.4017 94.5904 37.6058L94.5904 37.6307C94.5904 37.8347 94.425 38.0001 94.221 38.0001C94.017 38.0001 93.8516 37.8347 93.8516 37.6307L93.8516 37.6058C93.8516 37.4017 94.017 37.2363 94.221 37.2363ZM94.221 41.2536C94.425 41.2536 94.5904 41.419 94.5904 41.6231L94.5904 41.673C94.5904 41.877 94.425 42.0424 94.221 42.0424C94.017 42.0424 93.8516 41.877 93.8516 41.673L93.8516 41.6231C93.8516 41.419 94.017 41.2536 94.221 41.2536ZM94.221 45.2959C94.425 45.2959 94.5904 45.4613 94.5904 45.6653L94.5904 45.7152C94.5904 45.9193 94.425 46.0847 94.221 46.0847C94.017 46.0847 93.8516 45.9193 93.8516 45.7152L93.8516 45.6653C93.8516 45.4613 94.017 45.2959 94.221 45.2959ZM94.221 49.3382C94.425 49.3382 94.5904 49.5036 94.5904 49.7076L94.5904 49.7575C94.5904 49.9615 94.425 50.1269 94.221 50.1269C94.017 50.1269 93.8516 49.9615 93.8516 49.7575L93.8516 49.7076C93.8516 49.5036 94.017 49.3382 94.221 49.3382ZM94.221 53.3805C94.425 53.3805 94.5904 53.5459 94.5904 53.7499L94.5904 53.7748C94.5904 53.9789 94.425 54.1443 94.221 54.1443C94.017 54.1443 93.8516 53.9789 93.8516 53.7748L93.8516 53.7499C93.8516 53.5459 94.017 53.3805 94.221 53.3805Z" fill="#55555E"/>
<path fill-rule="evenodd" clip-rule="evenodd" d="M94.221 7.20703C94.425 7.20703 94.5904 7.37243 94.5904 7.57646L94.5904 7.59984C94.5904 7.80387 94.425 7.96926 94.221 7.96926C94.017 7.96926 93.8516 7.80387 93.8516 7.59984L93.8516 7.57646C93.8516 7.37243 94.017 7.20703 94.221 7.20703ZM94.221 10.9715C94.425 10.9715 94.5904 11.1369 94.5904 11.341L94.5904 11.3877C94.5904 11.5918 94.425 11.7572 94.221 11.7572C94.017 11.7572 93.8516 11.5918 93.8516 11.3877L93.8516 11.341C93.8516 11.1369 94.017 10.9715 94.221 10.9715ZM94.221 14.7594C94.425 14.7594 94.5904 14.9248 94.5904 15.1289L94.5904 15.1756C94.5904 15.3797 94.425 15.545 94.221 15.545C94.017 15.545 93.8516 15.3797 93.8516 15.1756L93.8516 15.1289C93.8516 14.9248 94.017 14.7594 94.221 14.7594ZM94.221 18.5473C94.425 18.5473 94.5904 18.7127 94.5904 18.9168L94.5904 18.9401C94.5904 19.1442 94.425 19.3096 94.221 19.3096C94.017 19.3096 93.8516 19.1442 93.8516 18.9401L93.8516 18.9168C93.8516 18.7127 94.017 18.5473 94.221 18.5473Z" fill="#55555E"/>
<path fill-rule="evenodd" clip-rule="evenodd" d="M119.568 28.7972C119.568 29.0012 119.403 29.1666 119.199 29.1666L119.177 29.1666C118.973 29.1666 118.807 29.0012 118.807 28.7972C118.807 28.5931 118.973 28.4277 119.177 28.4277L119.199 28.4277C119.403 28.4277 119.568 28.5931 119.568 28.7972ZM115.97 28.7972C115.97 29.0012 115.804 29.1666 115.6 29.1666L115.556 29.1666C115.352 29.1666 115.186 29.0012 115.186 28.7972C115.186 28.5931 115.352 28.4277 115.556 28.4277L115.6 28.4277C115.804 28.4277 115.97 28.5931 115.97 28.7972ZM112.349 28.7972C112.349 29.0012 112.183 29.1666 111.979 29.1666L111.935 29.1666C111.731 29.1666 111.565 29.0012 111.565 28.7972C111.565 28.5931 111.731 28.4277 111.935 28.4277L111.979 28.4277C112.183 28.4277 112.349 28.5931 112.349 28.7972ZM108.728 28.7972C108.728 29.0012 108.562 29.1666 108.358 29.1666L108.314 29.1666C108.11 29.1666 107.944 29.0012 107.944 28.7972C107.944 28.5931 108.11 28.4277 108.314 28.4277L108.358 28.4277C108.562 28.4277 108.728 28.5931 108.728 28.7972ZM105.107 28.7972C105.107 29.0012 104.942 29.1666 104.738 29.1666L104.693 29.1666C104.489 29.1666 104.323 29.0012 104.323 28.7972C104.323 28.5931 104.489 28.4277 104.693 28.4277L104.738 28.4277C104.942 28.4277 105.107 28.5931 105.107 28.7972ZM101.486 28.7972C101.486 29.0012 101.321 29.1666 101.117 29.1666L101.094 29.1666C100.89 29.1666 100.725 29.0012 100.725 28.7972C100.725 28.5931 100.89 28.4277 101.094 28.4277L101.117 28.4277C101.321 28.4277 101.486 28.5931 101.486 28.7972Z" fill="#55555E"/>
<path fill-rule="evenodd" clip-rule="evenodd" d="M87.877 28.7972C87.877 29.0012 87.7116 29.1666 87.5075 29.1666H87.485C87.281 29.1666 87.1156 29.0012 87.1156 28.7972C87.1156 28.5931 87.281 28.4277 87.485 28.4277H87.5075C87.7116 28.4277 87.877 28.5931 87.877 28.7972ZM84.2469 28.7972C84.2469 29.0012 84.0815 29.1666 83.8775 29.1666H83.8324C83.6284 29.1666 83.463 29.0012 83.463 28.7972C83.463 28.5931 83.6284 28.4277 83.8324 28.4277H83.8775C84.0815 28.4277 84.2469 28.5931 84.2469 28.7972ZM80.5943 28.7972C80.5943 29.0012 80.4289 29.1666 80.2249 29.1666H80.1798C79.9758 29.1666 79.8104 29.0012 79.8104 28.7972C79.8104 28.5931 79.9758 28.4277 80.1798 28.4277H80.2249C80.4289 28.4277 80.5943 28.5931 80.5943 28.7972Z" fill="#55555E"/>
<path fill-rule="evenodd" clip-rule="evenodd" d="M94.1983 3.45117H94.2477C94.4517 3.45137 94.617 3.61692 94.6168 3.82095C94.6166 4.02498 94.451 4.19022 94.247 4.19002H94.199C93.995 4.19022 93.8295 4.02498 93.8293 3.82095C93.8291 3.61692 93.9943 3.45137 94.1983 3.45117ZM90.7066 4.06362C90.7381 4.2652 90.6002 4.45414 90.3986 4.48561L90.3514 4.49304C90.1498 4.52491 89.9606 4.38738 89.9288 4.18586C89.8969 3.98434 90.0344 3.79513 90.2359 3.76326L90.2846 3.75561C90.4862 3.72413 90.6752 3.86203 90.7066 4.06362ZM97.7394 4.06362C97.7709 3.86203 97.9598 3.72413 98.1614 3.75561L98.2101 3.76326C98.4116 3.79514 98.5491 3.98434 98.5173 4.18586C98.4854 4.38738 98.2962 4.52491 98.0947 4.49304L98.0474 4.48561C97.8458 4.45414 97.7079 4.2652 97.7394 4.06362ZM101.563 4.91462C101.626 4.7205 101.834 4.61407 102.028 4.67689L102.075 4.69209C102.269 4.75529 102.375 4.96379 102.312 5.15778C102.249 5.35177 102.04 5.45779 101.846 5.39459L101.801 5.37985C101.607 5.31702 101.5 5.10873 101.563 4.91462ZM86.8828 4.91462C86.9456 5.10873 86.8392 5.31702 86.6451 5.37985L86.5997 5.39459C86.4057 5.45779 86.1972 5.35177 86.134 5.15778C86.0708 4.96379 86.1768 4.75529 86.3708 4.69209L86.4176 4.6769C86.6117 4.61407 86.82 4.7205 86.8828 4.91462ZM105.205 6.35734C105.297 6.17554 105.52 6.10322 105.702 6.19582L105.745 6.21815C105.927 6.3111 105.999 6.53369 105.906 6.71531C105.813 6.89694 105.59 6.96882 105.409 6.87587L105.366 6.85419C105.185 6.76159 105.112 6.53915 105.205 6.35734ZM83.2412 6.35734C83.3338 6.53915 83.2615 6.76159 83.0797 6.85419L83.0372 6.87587C82.8556 6.96882 82.633 6.89694 82.54 6.71532C82.4471 6.53369 82.519 6.3111 82.7006 6.21815L82.7444 6.19582C82.9262 6.10322 83.1486 6.17554 83.2412 6.35734ZM79.8715 8.35399C79.9914 8.51907 79.9548 8.75009 79.7897 8.86999L79.7511 8.89804C79.5863 9.01826 79.3552 8.98208 79.235 8.81723C79.1148 8.65238 79.1509 8.42129 79.3158 8.30107L79.3555 8.27218C79.5206 8.15228 79.7516 8.18891 79.8715 8.35399ZM108.575 8.35399C108.694 8.18891 108.925 8.15228 109.091 8.27218L109.13 8.30107C109.295 8.42129 109.331 8.65238 109.211 8.81723C109.091 8.98208 108.86 9.01826 108.695 8.89804L108.656 8.86999C108.491 8.75009 108.455 8.51907 108.575 8.35399ZM76.8546 10.8521C76.9987 10.9966 76.9985 11.2305 76.8541 11.3746L76.8204 11.4083C76.6762 11.5527 76.4423 11.5529 76.2979 11.4088C76.1535 11.2647 76.1533 11.0308 76.2974 10.8864L76.3321 10.8516C76.4765 10.7075 76.7104 10.7077 76.8546 10.8521ZM111.591 10.8521C111.736 10.7077 111.969 10.7075 112.114 10.8516L112.149 10.8864C112.293 11.0308 112.293 11.2647 112.148 11.4088C112.004 11.5529 111.77 11.5527 111.626 11.4083L111.592 11.3746C111.448 11.2305 111.447 10.9966 111.591 10.8521ZM114.183 13.7892C114.348 13.669 114.579 13.7052 114.699 13.87L114.728 13.9097C114.848 14.0748 114.811 14.3058 114.646 14.4257C114.481 14.5456 114.25 14.509 114.13 14.3439L114.102 14.3054C113.982 14.1405 114.018 13.9094 114.183 13.7892ZM116.285 17.0943C116.467 17.0013 116.689 17.0732 116.782 17.2548L116.804 17.2986C116.897 17.4804 116.825 17.7028 116.643 17.7954C116.461 17.888 116.239 17.8157 116.146 17.6339L116.124 17.5914C116.031 17.4098 116.103 17.1872 116.285 17.0943ZM117.843 20.6882C118.036 20.625 118.245 20.731 118.308 20.925L118.323 20.9718C118.386 21.1659 118.28 21.3742 118.086 21.437C117.892 21.4999 117.683 21.3934 117.62 21.1993L117.606 21.1539C117.542 20.9599 117.649 20.7514 117.843 20.6882ZM118.814 24.483C119.016 24.4511 119.205 24.5887 119.237 24.7902L119.245 24.8389C119.276 25.0405 119.138 25.2294 118.937 25.2609C118.735 25.2924 118.546 25.1545 118.515 24.9529L118.507 24.9056C118.475 24.7041 118.613 24.5149 118.814 24.483ZM119.179 28.3835C119.383 28.3833 119.549 28.5485 119.549 28.7526V28.802C119.549 29.006 119.383 29.1712 119.179 29.171C118.975 29.1708 118.81 29.0053 118.81 28.8012V28.7533C118.81 28.5492 118.975 28.3837 119.179 28.3835ZM118.937 32.2936C119.138 32.3251 119.276 32.5141 119.245 32.7156L119.237 32.7643C119.205 32.9659 119.016 33.1034 118.814 33.0715C118.613 33.0396 118.475 32.8504 118.507 32.6489L118.515 32.6017C118.546 32.4001 118.735 32.2622 118.937 32.2936ZM118.086 36.1175C118.28 36.1803 118.386 36.3886 118.323 36.5827L118.308 36.6295C118.245 36.8235 118.036 36.9295 117.843 36.8663C117.649 36.8031 117.542 36.5946 117.606 36.4006L117.62 36.3552C117.683 36.1611 117.892 36.0546 118.086 36.1175ZM116.643 39.7591C116.825 39.8517 116.897 40.0741 116.804 40.2559L116.782 40.2997C116.689 40.4813 116.467 40.5532 116.285 40.4602C116.103 40.3673 116.031 40.1447 116.124 39.9631L116.146 39.9206C116.239 39.7388 116.461 39.6665 116.643 39.7591ZM114.646 43.1288C114.811 43.2487 114.848 43.4797 114.728 43.6448L114.699 43.6845C114.579 43.8493 114.348 43.8855 114.183 43.7653C114.018 43.6451 113.982 43.414 114.102 43.2491L114.13 43.2106C114.25 43.0455 114.481 43.0089 114.646 43.1288ZM76.2979 46.1457C76.4423 46.0016 76.6762 46.0018 76.8204 46.1462L76.8541 46.1799C76.9985 46.3241 76.9987 46.558 76.8546 46.7024C76.7104 46.8468 76.4765 46.847 76.3321 46.7029L76.2974 46.6681C76.1533 46.5237 76.1535 46.2898 76.2979 46.1457ZM112.148 46.1457C112.293 46.2898 112.293 46.5237 112.149 46.6681L112.114 46.7029C111.969 46.847 111.736 46.8468 111.591 46.7024C111.447 46.558 111.448 46.3241 111.592 46.1799L111.626 46.1462C111.77 46.0018 112.004 46.0016 112.148 46.1457ZM79.235 48.7373C79.3552 48.5724 79.5863 48.5363 79.7511 48.6565L79.7897 48.6845C79.9548 48.8044 79.9914 49.0354 79.8715 49.2005C79.7516 49.3656 79.5206 49.4022 79.3555 49.2823L79.3158 49.2534C79.1509 49.1332 79.1148 48.9021 79.235 48.7373ZM109.211 48.7373C109.331 48.9021 109.295 49.1332 109.13 49.2534L109.091 49.2823C108.925 49.4022 108.694 49.3656 108.575 49.2005C108.455 49.0354 108.491 48.8044 108.656 48.6845L108.695 48.6565C108.86 48.5363 109.091 48.5724 109.211 48.7373ZM82.54 50.8392C82.633 50.6576 82.8556 50.5857 83.0372 50.6786L83.0797 50.7003C83.2615 50.7929 83.3338 51.0154 83.2412 51.1972C83.1486 51.379 82.9262 51.4513 82.7444 51.3587L82.7006 51.3364C82.519 51.2434 82.4471 51.0208 82.54 50.8392ZM105.906 50.8392C105.999 51.0208 105.927 51.2434 105.745 51.3364L105.702 51.3587C105.52 51.4513 105.297 51.379 105.205 51.1972C105.112 51.0154 105.185 50.7929 105.366 50.7003L105.409 50.6786C105.59 50.5857 105.813 50.6576 105.906 50.8392ZM86.134 52.3967C86.1972 52.2027 86.4057 52.0967 86.5997 52.1599L86.6451 52.1747C86.8392 52.2375 86.9456 52.4458 86.8828 52.6399C86.82 52.834 86.6117 52.9404 86.4176 52.8776L86.3708 52.8624C86.1768 52.7992 86.0708 52.5907 86.134 52.3967ZM102.312 52.3967C102.375 52.5907 102.269 52.7992 102.075 52.8624L102.028 52.8776C101.834 52.9404 101.626 52.834 101.563 52.6399C101.5 52.4458 101.607 52.2375 101.801 52.1747L101.846 52.1599C102.04 52.0967 102.249 52.2027 102.312 52.3967ZM89.9288 53.3687C89.9606 53.1671 90.1498 53.0296 90.3514 53.0615L90.3986 53.0689C90.6002 53.1004 90.7381 53.2893 90.7066 53.4909C90.6752 53.6925 90.4862 53.8304 90.2846 53.7989L90.2359 53.7913C90.0344 53.7594 89.8969 53.5702 89.9288 53.3687ZM98.5173 53.3687C98.5491 53.5702 98.4116 53.7594 98.2101 53.7913L98.1614 53.7989C97.9598 53.8304 97.7709 53.6925 97.7394 53.4909C97.7079 53.2893 97.8458 53.1004 98.0474 53.0689L98.0947 53.0615C98.2962 53.0296 98.4854 53.1671 98.5173 53.3687ZM93.8293 53.7336C93.8294 53.5295 93.995 53.3643 94.199 53.3645H94.247C94.451 53.3643 94.6166 53.5295 94.6168 53.7336C94.617 53.9376 94.4517 54.1031 94.2477 54.1033H94.1983C93.9943 54.1031 93.8291 53.9376 93.8293 53.7336Z" fill="white"/>
<path d="M95.043 53.7337C95.043 54.1871 94.6754 54.5547 94.222 54.5547C93.7686 54.5547 93.4011 54.1871 93.4011 53.7337C93.4011 53.2804 93.7686 52.9128 94.222 52.9128C94.6754 52.9128 95.043 53.2804 95.043 53.7337Z" fill="#6966FF"/>
<path d="M119.178 29.5986C118.725 29.5986 118.357 29.2311 118.357 28.7777C118.357 28.3243 118.725 27.9567 119.178 27.9567C119.632 27.9567 119.999 28.3243 119.999 28.7777C119.999 29.2311 119.632 29.5986 119.178 29.5986Z" fill="#6966FF"/>
<path d="M95.043 3.82066C95.043 4.27405 94.6754 4.6416 94.222 4.6416C93.7686 4.6416 93.4011 4.27405 93.4011 3.82066C93.4011 3.36726 93.7686 2.99972 94.222 2.99972C94.6754 2.99972 95.043 3.36726 95.043 3.82066Z" fill="#6966FF"/>
<path fill-rule="evenodd" clip-rule="evenodd" d="M101.395 13.3887H108.204L86.2832 44.0895H79.5879L101.395 13.3887ZM93.3971 22.4352L86.9807 13.3887H80.1459L90.0494 27.3697L93.3971 22.4352ZM91.7186 22.4526L90.025 24.9491L82.813 14.7679H86.2681L91.7186 22.4526ZM82.2593 42.7103H85.5733L105.524 14.7679H102.107L82.2593 42.7103Z" fill="white"/>
<path fill-rule="evenodd" clip-rule="evenodd" d="M102.818 42.6842C102.865 42.7484 102.939 42.7865 103.018 42.7865H106.203L98.636 32.0414C98.5378 31.9019 98.3309 31.9022 98.233 32.0419L96.8152 34.0674C96.7551 34.1532 96.7559 34.2675 96.8171 34.3525L102.818 42.6842ZM95.0234 34.222L102.186 44.1657H108.861L98.4307 29.3545L95.0234 34.222Z" fill="url(#paint0_linear_6202_3255)"/>
<path fill-rule="evenodd" clip-rule="evenodd" d="M31.4096 13.3887H25.5577V22.5238C23.8676 21.6197 21.9273 21.1055 19.8639 21.1055C13.3127 21.1055 8.00195 26.288 8.00195 32.6808C8.00195 39.0737 13.3127 44.2561 19.8639 44.2561C21.9273 44.2561 23.8676 43.742 25.5577 42.8379V43.9805H31.4096V13.3887ZM26.5196 32.6199C26.5196 36.2406 23.5118 39.1758 19.8014 39.1758C16.091 39.1758 13.0831 36.2406 13.0831 32.6199C13.0831 28.9991 16.091 26.0639 19.8014 26.0639C23.5118 26.0639 26.5196 28.9991 26.5196 32.6199ZM55.1208 13.3887L33.3603 43.9806H40.1822L61.9217 13.3887H55.1208ZM72.0944 13.3887H77.9463V43.9805H72.0944V42.8379C70.4043 43.742 68.464 44.2561 66.4006 44.2561C59.8494 44.2561 54.5386 39.0737 54.5386 32.6808C54.5386 26.288 59.8494 21.1055 66.4006 21.1055C68.464 21.1055 70.4043 21.6197 72.0944 22.5238V13.3887ZM66.3381 39.1758C70.0485 39.1758 73.0563 36.2406 73.0563 32.6199C73.0563 28.9991 70.0485 26.0639 66.3381 26.0639C62.6277 26.0639 59.6198 28.9991 59.6198 32.6199C59.6198 36.2406 62.6277 39.1758 66.3381 39.1758ZM47.0152 22.6762L40.1879 13.3887H33.082L43.2532 27.8663L47.0152 22.6762Z" fill="white"/>
</g>
<defs>
<filter id="filter0_d_6202_3255" x="0" y="0" width="128" height="80" filterUnits="userSpaceOnUse" color-interpolation-filters="sRGB">
<feFlood flood-opacity="0" result="BackgroundImageFix"/>
<feColorMatrix in="SourceAlpha" type="matrix" values="0 0 0 0 0 0 0 0 0 0 0 0 0 0 0 0 0 0 127 0" result="hardAlpha"/>
<feOffset dy="4"/>
<feGaussianBlur stdDeviation="2"/>
<feComposite in2="hardAlpha" operator="out"/>
<feColorMatrix type="matrix" values="0 0 0 0 0 0 0 0 0 0 0 0 0 0 0 0 0 0 0.25 0"/>
<feBlend mode="normal" in2="BackgroundImageFix" result="effect1_dropShadow_6202_3255"/>
<feBlend mode="normal" in="SourceGraphic" in2="effect1_dropShadow_6202_3255" result="shape"/>
</filter>
<linearGradient id="paint0_linear_6202_3255" x1="103.69" y1="41.8344" x2="92.6571" y2="26.6755" gradientUnits="userSpaceOnUse">
<stop stop-color="#6966FF"/>
<stop offset="1" stop-color="#6966FF" stop-opacity="0.36"/>
</linearGradient>
</defs>
</svg>
